<svg width="16" height="10" viewBox="0 0 16 10" fill="none" xmlns="http://www.w3.org/2000/svg">
<path d="M8 9.5C8.31567 9.5 8.58625 9.38541 8.82074 9.13859L15.6933 2.28061C15.8918 2.08668 16 1.83986 16 1.54897C16 0.967189 15.531 0.5 14.9267 0.5C14.6291 0.5 14.3675 0.623408 14.1601 0.817336L8 6.99657L1.83991 0.817336C1.63247 0.623408 1.36189 0.5 1.07328 0.5C0.468997 0.5 0 0.967189 0 1.54897C0 1.83986 0.10823 2.08668 0.306652 2.28061L7.17024 9.13859C7.41375 9.38541 7.68433 9.5 8 9.5Z" fill="#909590"/>
</svg>
