<svg width="64" height="64" viewBox="0 0 64 64" fill="none" xmlns="http://www.w3.org/2000/svg">
    <path d="M49.904 15.284L38.424 5.444C37.3367 4.51223 35.952 4.00005 34.52 4H18C16.4087 4 14.8826 4.63214 13.7574 5.75736C12.6321 6.88258 12 8.4087 12 10V54C12 55.5913 12.6321 57.1174 13.7574 58.2426C14.8826 59.3679 16.4087 60 18 60H46C47.5913 60 49.1174 59.3679 50.2426 58.2426C51.3679 57.1174 52 55.5913 52 54V19.84C52.0008 18.9742 51.8138 18.1186 51.4519 17.332C51.0901 16.5455 50.562 15.8467 49.904 15.284ZM46.928 18H40C39.4696 18 38.9609 17.7893 38.5858 17.4142C38.2107 17.0391 38 16.5304 38 16V10.348L46.928 18ZM48 54C48 54.5304 47.7893 55.0391 47.4142 55.4142C47.0391 55.7893 46.5304 56 46 56H18C17.4696 56 16.9609 55.7893 16.5858 55.4142C16.2107 55.0391 16 54.5304 16 54V10C16 9.46957 16.2107 8.96086 16.5858 8.58579C16.9609 8.21071 17.4696 8 18 8H34V16C34 17.5913 34.6321 19.1174 35.7574 20.2426C36.8826 21.3679 38.4087 22 40 22H48V54Z" fill="#175676"/>
    <path d="M24 30C23.4696 30 22.9609 30.2107 22.5858 30.5858C22.2107 30.9609 22 31.4696 22 32C22 32.5304 22.2107 33.0391 22.5858 33.4142C22.9609 33.7893 23.4696 34 24 34H40C40.5304 34 41.0391 33.7893 41.4142 33.4142C41.7893 33.0391 42 32.5304 42 32C42 31.4696 41.7893 30.9609 41.4142 30.5858C41.0391 30.2107 40.5304 30 40 30H24Z" fill="#175676"/>
    <path d="M40 38H24C23.4696 38 22.9609 38.2107 22.5858 38.5858C22.2107 38.9609 22 39.4696 22 40C22 40.5304 22.2107 41.0391 22.5858 41.4142C22.9609 41.7893 23.4696 42 24 42H40C40.5304 42 41.0391 41.7893 41.4142 41.4142C41.7893 41.0391 42 40.5304 42 40C42 39.4696 41.7893 38.9609 41.4142 38.5858C41.0391 38.2107 40.5304 38 40 38Z" fill="#175676"/>
    <path d="M34 46H24C23.4696 46 22.9609 46.2107 22.5858 46.5858C22.2107 46.9609 22 47.4696 22 48C22 48.5304 22.2107 49.0391 22.5858 49.4142C22.9609 49.7893 23.4696 50 24 50H34C34.5304 50 35.0391 49.7893 35.4142 49.4142C35.7893 49.0391 36 48.5304 36 48C36 47.4696 35.7893 46.9609 35.4142 46.5858C35.0391 46.2107 34.5304 46 34 46Z" fill="#175676"/>
</svg>
