<svg width="12" height="12" viewBox="0 0 12 12" fill="none" xmlns="http://www.w3.org/2000/svg">
    <path d="M11.6705 1.51886L10.4816 0.329384C10.2706 0.118513 9.98461 6.10352e-05 9.68637 6.10352e-05C9.38813 6.10352e-05 9.10209 0.118513 8.89112 0.329384L0.488505 8.73486C0.431199 8.79208 0.394007 8.86636 0.382518 8.94653L0.00378283 11.5716C-0.00382777 11.6248 7.4521e-05 11.679 0.0152257 11.7306C0.0303768 11.7821 0.0564234 11.8299 0.0916032 11.8705C0.126783 11.9111 0.170275 11.9437 0.219137 11.9661C0.268 11.9884 0.321092 12 0.374822 12.0001C0.392521 12.0001 0.4102 11.9989 0.427722 11.9964L3.05574 11.6214C3.13606 11.6098 3.21049 11.5726 3.26788 11.5152L11.6705 3.10973C11.775 3.00529 11.8578 2.88129 11.9144 2.74481C11.9709 2.60833 12 2.46204 12 2.3143C12 2.16657 11.9709 2.02028 11.9144 1.8838C11.8578 1.74731 11.775 1.62331 11.6705 1.51887V1.51886ZM2.8262 10.8963L0.81743 11.183L1.10684 9.17687L8.25118 2.0301L9.97035 3.74985L2.8262 10.8963ZM11.1404 2.57944L10.5005 3.21959L8.78129 1.49982L9.42121 0.859679C9.45603 0.824847 9.49737 0.797217 9.54286 0.778365C9.58835 0.759514 9.63711 0.749812 9.68636 0.749812C9.7356 0.749812 9.78436 0.759514 9.82985 0.778365C9.87535 0.797217 9.91668 0.824847 9.9515 0.859679L11.1406 2.04953C11.1754 2.08433 11.2029 2.12564 11.2218 2.17111C11.2406 2.21658 11.2502 2.26531 11.2502 2.31452C11.2502 2.36373 11.2405 2.41245 11.2217 2.45791C11.2028 2.50336 11.1752 2.54466 11.1404 2.57944Z" fill="#2A1A1F"/>
</svg>
