<svg width="64" height="64" viewBox="0 0 64 64" fill="none" xmlns="http://www.w3.org/2000/svg">
    <path fill-rule="evenodd" clip-rule="evenodd" d="M30.4929 4H33.5054C34.3518 4 35.0429 4.69107 35.0429 5.5375V16.8893C35.0429 17.7357 34.3518 18.4268 33.5054 18.4268H30.4929C29.6464 18.4268 28.9554 17.7357 28.9554 16.8893V5.5375C28.9554 4.69107 29.6464 4 30.4929 4ZM23.4679 21.3375L21.3375 23.4678C20.7393 24.0661 19.7607 24.0661 19.1625 23.4678L11.1339 15.4411C10.5357 14.8429 10.5357 13.8643 11.1339 13.2661L13.2643 11.1357C13.8625 10.5375 14.8411 10.5375 15.4393 11.1357L23.4661 19.1643C24.0643 19.7625 24.0643 20.7411 23.4661 21.3393L23.4679 21.3375ZM18.4268 30.4928V33.5053C18.4268 34.3518 17.7357 35.0428 16.8893 35.0428H5.5375C4.69107 35.0428 4 34.3518 4 33.5053V30.4928C4 29.6464 4.69107 28.9553 5.5375 28.9553H16.8893C17.7357 28.9553 18.4268 29.6464 18.4268 30.4928ZM21.3375 40.5321L23.4679 42.6625C24.0661 43.2607 24.0661 44.2393 23.4679 44.8375L15.4411 52.8661C14.8429 53.4643 13.8643 53.4643 13.2661 52.8661L11.1357 50.7357C10.5375 50.1375 10.5375 49.1589 11.1357 48.5625L19.1643 40.5339C19.7625 39.9357 20.7411 39.9357 21.3393 40.5339L21.3375 40.5321ZM30.4929 45.5732H33.5054C34.3518 45.5732 35.0429 46.2643 35.0429 47.1107V58.4625C35.0429 59.3089 34.3518 60 33.5054 60H30.4929C29.6464 60 28.9554 59.3089 28.9554 58.4625V47.1107C28.9554 46.2643 29.6464 45.5732 30.4929 45.5732ZM52.8643 50.7357L50.7339 52.8661C50.1357 53.4643 49.1571 53.4643 48.5607 52.8661L40.5321 44.8375C39.9339 44.2393 39.9339 43.2607 40.5321 42.6625L42.6625 40.5321C43.2607 39.9339 44.2393 39.9339 44.8375 40.5321L52.8661 48.5607C53.4643 49.1589 53.4643 50.1375 52.8661 50.7357H52.8643ZM60 30.4946V33.5071C60 34.3536 59.3089 35.0446 58.4625 35.0446H47.1107C46.2643 35.0446 45.5732 34.3536 45.5732 33.5071V30.4946C45.5732 29.6482 46.2643 28.9571 47.1107 28.9571H58.4625C59.3089 28.9571 60 29.6482 60 30.4946Z" fill="#175676"/>
</svg>
